<?xml version="1.0" encoding="utf-8"?>
<!-- Generator: Adobe Illustrator 26.0.0, SVG Export Plug-In . SVG Version: 6.00 Build 0)  -->
<svg version="1.1" id="Layer_1" xmlns="http://www.w3.org/2000/svg" xmlns:xlink="http://www.w3.org/1999/xlink" x="0px" y="0px"
	 viewBox="0 0 500 500" style="enable-background:new 0 0 500 500;" xml:space="preserve">
<style type="text/css">
	.st0{fill:url(#SVGID_1_);}
</style>
<g id="BLACK">
	<linearGradient id="SVGID_1_" gradientUnits="userSpaceOnUse" x1="20.3542" y1="378.1098" x2="340.8159" y2="58.1849">
		<stop  offset="0" style="stop-color:#CCA841"/>
		<stop  offset="0.25" style="stop-color:#E7D157"/>
		<stop  offset="0.5" style="stop-color:#F4E870"/>
		<stop  offset="0.75" style="stop-color:#E7D157"/>
		<stop  offset="1" style="stop-color:#CCA841"/>
	</linearGradient>
	<path class="st0" d="M269.06,321.62c28.59-0.88,53.2-6.77,73.81-17.67c22.43-11.86,39.39-27.89,50.89-48.11
		c11.49-20.2,17.24-42.73,17.24-67.57c0-41.15-12.89-73.97-38.65-98.44c-25.77-24.47-62.76-36.7-110.95-36.7H89v393.74h101.53
		c12.11,0,21.94-9.82,21.94-21.93V321.74v0v-23.9c0-0.24,0.2-0.44,0.44-0.44h55.72c0.24,0,0.44,0.2,0.44,0.44V321.62z
		 M293.12,244.73l-24.51,50.53h-55.69l-24.69-52.28c-0.13-0.21-0.13-0.47,0.02-0.67l49.96-83c0.34-0.46,1.07-0.23,1.07,0.35l0,72.24
		c0,0.21-0.11,0.41-0.3,0.51c-1.22,0.64-2.05,1.92-2.05,3.4c0,2.15,1.78,3.89,3.95,3.83c2.08-0.06,3.78-1.86,3.72-3.94
		c-0.04-1.43-0.87-2.67-2.06-3.3c-0.18-0.09-0.28-0.28-0.28-0.48l0-72.26c0-0.57,0.73-0.81,1.07-0.35l49.78,84.75
		C293.24,244.26,293.25,244.53,293.12,244.73z M324.72,147.51h-8.93v-4.06h-59.08c24.73,6.5,43.49,27.91,46.04,54h2.73v8.93h-8.93
		v-8.93h3.75c-2.93-28.74-26.34-51.52-55.36-53.46v3.51H236v-4.06h-70.45v4.06h-8.93v-8.93h8.93v2.43h59.57
		c-24.99-6.57-43.87-28.36-46.11-54.81h-3.47v-8.93h8.93v8.93h-3.01c2.54,28.83,25.66,51.84,54.54,54.2v-1.82h8.93v2.43h70.85v-2.43
		h8.93V147.51z"/>
</g>
</svg>
